<svg width="172" height="44" viewBox="0 0 172 44" fill="none" xmlns="http://www.w3.org/2000/svg">
<path d="M69.8565 8.80003C69.8565 9.18723 69.8565 9.57443 69.8565 9.97336C70.3045 10.1186 70.7524 10.2638 71.214 10.4134C72.9628 11.2263 73.6547 11.7982 74.5527 13.4934C74.3021 15.4887 73.498 16.5694 72.1679 18.04C71.8463 18.4 71.5247 18.76 71.1933 19.1309C70.9459 19.4001 70.6985 19.6693 70.4435 19.9467C68.353 19.6122 67.4551 18.8885 66.0408 17.3434C64.2693 15.416 62.8825 14.2357 60.2278 13.9036C58.0236 13.8934 56.1536 13.957 54.0433 14.63C52.1697 16.5025 51.4752 18.523 51.0715 21.12C51.2067 23.5273 51.8647 25.3345 53.3829 27.2434C55.3847 28.7589 57.2294 28.8519 59.6843 28.9965C63.5176 28.2959 66.2452 25.5431 68.8223 22.8296C69.5044 22.1314 70.1866 21.4332 70.8689 20.735C71.9216 19.6466 72.9722 18.5563 74.0212 17.4642C84.1987 6.90174 84.1987 6.90174 91.3083 6.33419C96.0604 6.25002 100.013 6.88785 104.088 9.42336C107.443 13.0885 109.406 17.631 109.357 22.6004C109.066 25.0938 108.006 27.1388 106.839 29.3334C106.585 29.8658 106.331 30.3982 106.069 30.9467C103.862 33.8875 100.96 35.4236 97.4469 36.3734C90.5353 36.9471 86.3559 36.1071 80.7762 31.9734C79.836 31.0934 79.249 31.3867 78.662 29.6267C78.2746 29.6267 78.4741 29.3334 78.0749 29.3334C78.4229 27.3434 79.1124 26.2764 80.4597 24.7867C80.9421 24.2467 80.9421 24.2467 81.4343 23.6959C81.6817 23.4266 81.9292 23.1574 82.1841 22.88C85.1368 23.4536 86.9903 25.2972 89.045 27.4267C90.838 29.1332 93.2411 28.9051 95.5574 28.875C97.8807 28.6461 99.2071 27.6343 100.738 25.9486C102.229 23.5638 101.923 20.8994 101.556 18.1867C100.314 16.0135 99.1314 15.0363 96.8599 14.08C93.5435 13.616 90.888 13.9736 88.0544 15.84C86.0649 17.6389 84.4367 19.6127 82.7712 21.7067C81.5237 23.0634 81.5237 23.0634 80.423 24.0534C80.0356 24.0534 80.2352 24.3467 79.8361 24.3467C79.8361 24.7339 79.249 24.8278 79.249 25.2267C78.3249 26.1365 78.3249 26.1365 77.0843 27.17C75.6841 28.3541 74.3882 29.5062 73.1218 30.8367C68.8848 34.8645 65.4649 36.4544 59.6568 36.4834C58.9016 36.4917 58.1464 36.5 57.3683 36.5086C55.2485 36.3775 53.6265 35.9703 51.6585 35.2C51.6585 34.8128 51.0716 35.0123 51.0716 34.6134C50.4541 34.45 49.9404 33.9 49.3105 33.7334C46.3247 32.2414 45.6821 29.8828 44.394 26.84C43.4696 21.2967 43.7115 16.6806 46.8155 11.9167C53.2006 5.35831 61.8112 4.81543 69.8565 8.80003Z" fill="#E96934"/>
<path d="M17.0239 7.62661C19.3475 11.0174 20.1426 15.4256 21.1744 19.337C21.6509 21.1985 21.6509 21.1985 22.8942 22.8799C23.0211 22.4449 23.148 22.0098 23.2787 21.5615C23.8608 19.5897 24.4596 17.6233 25.0589 15.6566C25.2583 14.9718 25.4577 14.287 25.6631 13.5815C25.8655 12.9255 26.068 12.2694 26.2765 11.5935C26.4579 10.9882 26.6393 10.383 26.8261 9.75943C27.7637 7.86272 28.6222 7.3248 30.5256 6.45327C32.7198 6.13349 33.6795 6.21662 35.5552 7.42179C37.2412 9.04922 37.5783 10.0707 38.1066 12.3337C38.2746 13.0302 38.4425 13.7267 38.6156 14.4443C38.7791 15.1711 38.9425 15.8978 39.1109 16.6466C39.2789 17.3507 39.4469 18.0547 39.62 18.7801C40.1273 20.9256 40.6126 23.0749 41.0922 25.2266C41.3473 26.3477 41.3473 26.3477 41.6075 27.4913C41.7689 28.2156 41.9303 28.9399 42.0965 29.6862C42.3149 30.6625 42.3149 30.6625 42.5377 31.6585C42.8533 33.4399 42.8533 33.4399 42.8533 36.3733C40.9161 36.3733 38.9789 36.3733 36.9829 36.3733C35.4628 33.152 34.6305 30.0327 33.9377 26.5466C33.8337 26.0482 33.7296 25.5499 33.6224 25.0364C33.2254 23.0969 32.8737 21.3457 32.8737 19.3599C32.2926 19.3599 31.7114 19.3599 31.1126 19.3599C31.0619 19.6813 31.0112 20.0028 30.959 20.3339C30.3779 23.6106 29.5176 26.7302 28.471 29.8833C28.3456 30.2649 28.2202 30.6464 28.0911 31.0396C27.4875 32.8176 26.8792 34.2128 25.8294 35.7866C23.8385 36.2746 22.2578 36.4703 20.2342 36.1052C17.9733 34.6929 17.6433 32.6888 16.9138 30.2133C16.7647 29.7377 16.6155 29.2621 16.4618 28.7721C15.4482 25.4717 14.6392 22.1841 14.0887 18.7733C13.7013 18.7733 13.3139 18.7733 12.9147 18.7733C12.808 19.4184 12.7013 20.0634 12.5914 20.7281C10.3033 34.2897 10.3033 34.2897 8.21844 36.3733C6.94807 36.4879 6.94807 36.4879 5.50342 36.4466C5.02366 36.436 4.5439 36.4254 4.0496 36.4145C3.68184 36.4009 3.31407 36.3873 2.93516 36.3733C2.24397 33.8859 2.50261 32.1668 3.12778 29.6793C3.30713 28.9529 3.48647 28.2266 3.67124 27.4782C3.86601 26.7154 4.06092 25.9526 4.25598 25.1899C4.43987 24.4507 4.62375 23.7115 4.8132 22.9498C5.17939 21.4807 5.55043 20.0128 5.9265 18.5461C6.27215 17.1661 6.59954 15.7813 6.90565 14.3919C7.04526 13.7694 7.18488 13.1469 7.32872 12.5056C7.44507 11.9585 7.56141 11.4114 7.68128 10.8477C8.32672 9.0921 9.14184 8.23409 10.5666 7.03994C13.0075 6.14121 14.7555 6.37251 17.0239 7.62661Z" fill="#E96934"/>
<path d="M104.088 9.42356C107.443 13.0887 109.406 17.6312 109.357 22.6006C109.066 25.094 108.006 27.139 106.84 29.3336C106.585 29.866 106.331 30.3984 106.069 30.9469C103.862 33.8877 100.96 35.4238 97.4471 36.3736C90.5354 36.9473 86.356 36.1073 80.7763 31.9736C79.8362 31.0936 79.8362 31.0936 79.2491 29.3336C78.8617 29.3336 78.4743 29.3336 78.0751 29.3336C78.4231 27.3436 79.1126 26.2766 80.4599 24.7869C80.9423 24.2469 80.9423 24.2469 81.4344 23.6961C81.6819 23.4268 81.9293 23.1576 82.1843 22.8802C85.1369 23.4538 86.9905 25.2974 89.0452 27.4269C90.8382 29.1334 93.2413 28.9053 95.5576 28.8752C97.8809 28.6463 99.2072 27.6345 100.738 25.9488C102.23 23.564 101.923 20.8996 101.556 18.1869C100.314 16.0137 99.1315 15.0365 96.8601 14.0802C93.5437 13.6162 90.8882 13.9738 88.0546 15.8402C86.0702 17.6345 84.4042 19.5916 82.7713 21.7069C82.3839 21.5133 81.9964 21.3197 81.5973 21.1202C81.5973 20.5394 81.5973 19.9586 81.5973 19.3602C82.1784 19.3602 82.7596 19.3602 83.3583 19.3602C83.9323 16.6357 84.0918 15.3813 82.7713 12.9069C83.1588 12.3261 83.5462 11.7453 83.9454 11.1469C81.0962 11.9913 79.4009 13.7269 77.4009 15.8173C77.063 16.1617 76.7251 16.506 76.3769 16.8608C74.9382 18.3274 73.51 19.8041 72.0809 21.2801C71.0329 22.3595 69.9794 23.4335 68.9256 24.5073C68.6094 24.838 68.2931 25.1687 67.9672 25.5094C65.6429 27.8762 63.0211 30.2864 59.5974 30.6696C57.0075 30.2602 54.9197 29.8667 52.8328 28.1602C52.0623 26.8769 52.0623 26.8769 51.6587 25.8136C52.3307 26.3762 52.3307 26.3762 53.0162 26.9502C55.2281 28.6467 56.9417 28.8351 59.6845 28.9967C63.5177 28.2961 66.2453 25.5433 68.8225 22.8298C69.5046 22.1315 70.1868 21.4334 70.869 20.7352C71.9218 19.6468 72.9724 18.5565 74.0213 17.4644C82.4168 8.75147 92.1451 1.99207 104.088 9.42356Z" fill="#E96934"/>
<path d="M163.195 7.04C163.195 8.976 163.195 10.912 163.195 12.9067C161.394 13.8064 159.515 13.5011 157.544 13.4567C154.136 13.4111 151.195 13.5796 147.932 14.6667C147.738 15.6347 147.544 16.6027 147.345 17.6C151.994 17.7936 156.643 17.9872 161.434 18.1867C162.021 22.2933 162.021 22.2933 161.434 24.0533C158.38 24.5626 155.464 24.7134 152.371 24.6767C151.727 24.6727 151.727 24.6727 151.07 24.6686C150.024 24.6618 148.978 24.6513 147.932 24.64C147.932 25.8016 147.932 26.9632 147.932 28.16C151.697 30.0414 157.135 29.381 161.236 29.2967C162.608 29.3333 162.608 29.3333 163.195 29.92C163.252 30.8964 163.271 31.8753 163.268 32.8533C163.27 33.6519 163.27 33.6519 163.273 34.4667C163.195 35.7867 163.195 35.7867 162.608 36.3733C160.435 36.5226 158.254 36.482 156.077 36.4833C155.47 36.4905 154.863 36.4977 154.238 36.5051C150.173 36.5129 146.844 36.3896 143.346 34.1367C140.488 31.2812 140.607 27.8048 140.447 23.98C140.424 23.4291 140.4 22.8781 140.376 22.3105C140.224 17.7159 140.11 13.374 142.575 9.35C147.327 5.01981 157.364 5.5833 163.195 7.04Z" fill="#E96934"/>
<path d="M109.775 6.45312C110.865 6.50583 111.954 6.59751 113.04 6.70979C113.931 6.79941 113.931 6.79941 114.84 6.89083C115.529 6.96457 115.529 6.96457 116.232 7.03979C116.368 7.46632 116.503 7.89284 116.643 8.33229C118.059 12.6951 119.697 16.91 121.515 21.1198C121.801 21.7902 121.801 21.7902 122.093 22.4742C122.485 23.3926 122.88 24.3098 123.276 25.2265C123.664 25.2265 124.051 25.2265 124.451 25.2265C124.622 24.8135 124.793 24.4006 124.969 23.9752C126.659 19.9068 128.381 15.8537 130.126 11.8088C130.799 10.228 131.443 8.63493 132.082 7.03979C134.213 7.03979 136.344 7.03979 138.539 7.03979C139.126 8.21313 139.126 8.21313 138.755 9.47326C138.549 9.9876 138.343 10.5019 138.131 11.0319C137.793 11.8858 137.793 11.8858 137.448 12.7569C137.203 13.3629 136.958 13.9688 136.705 14.5931C136.459 15.2081 136.214 15.8232 135.961 16.4568C135.26 18.2088 134.553 19.9581 133.843 21.7065C133.68 22.1094 133.517 22.5122 133.349 22.9273C132.559 24.8775 131.74 26.8139 130.908 28.7465C130.662 29.3439 130.416 29.9413 130.163 30.5569C129.912 31.1452 129.662 31.7336 129.404 32.3398C129.185 32.8616 128.966 33.3834 128.741 33.921C127.849 35.406 127.239 35.7992 125.625 36.3731C123.9 36.6298 123.9 36.6298 122.102 36.3731C117.57 32.9222 116.119 26.9991 114.23 21.8554C113.618 20.1975 112.979 18.5547 112.309 16.9192C112.148 16.5282 111.988 16.1373 111.823 15.7345C111.378 14.6547 110.928 13.5766 110.479 12.4985C109.809 10.6541 109.387 8.98951 109.188 7.03979C109.381 6.84619 109.575 6.65259 109.775 6.45312Z" fill="#E96934"/>
<path d="M69.8567 8.80006C69.8567 9.18726 69.8567 9.57446 69.8567 9.9734C70.3046 10.1186 70.7526 10.2638 71.2142 10.4134C72.963 11.2263 73.6549 11.7982 74.5529 13.4934C74.3023 15.4888 73.4982 16.5694 72.1681 18.0401C71.8465 18.4 71.5249 18.76 71.1935 19.1309C70.9461 19.4001 70.6986 19.6693 70.4437 19.9467C68.3532 19.6123 67.4553 18.8885 66.041 17.3434C64.2695 15.4161 62.8827 14.2358 60.228 13.9036C58.0237 13.8934 56.1537 13.957 54.0435 14.6301C52.1784 16.494 51.5227 18.5481 51.0717 21.1201C51.1016 22.7695 51.3329 24.1854 51.6587 25.8134C50.7782 25.2267 50.7782 25.2267 49.8976 24.0534C49.6627 21.1426 49.7444 19.0796 51.0717 16.4267C49.5219 16.0395 47.9722 15.6523 46.3754 15.2534C45.7943 16.7054 45.7943 16.7054 45.2014 18.1867C44.6261 16.6776 44.516 16.0616 45.183 14.559C47.9339 10.5124 50.6093 7.61354 55.5959 6.62069C60.9113 5.96007 65.0362 6.41263 69.8567 8.80006Z" fill="#E96934"/>
<path d="M104.088 9.42356C107.446 13.0913 109.389 17.6207 109.364 22.5892C109.066 25.062 107.996 27.152 106.84 29.3336C106.646 28.9464 106.452 28.5592 106.253 28.1602C106.431 27.7307 106.61 27.3011 106.794 26.8586C107.536 24.9456 107.583 23.46 107.573 21.4136C107.576 20.7662 107.579 20.1189 107.583 19.4519C107.427 17.6024 107.108 16.3083 106.253 14.6669C105.054 14.1466 105.054 14.1466 103.904 14.0802C103.904 13.693 103.904 13.3058 103.904 12.9069C103.517 12.9069 103.13 12.9069 102.73 12.9069C102.537 14.6493 102.343 16.3917 102.143 18.1869C100.595 16.8405 100.595 16.8405 99.0477 15.4942C96.7569 13.6244 94.4204 13.8162 91.5768 14.0802C87.6228 15.524 85.2843 18.4513 82.7713 21.7069C82.3839 21.5133 81.9964 21.3197 81.5973 21.1202C81.5973 20.5394 81.5973 19.9586 81.5973 19.3602C82.1784 19.3602 82.7596 19.3602 83.3583 19.3602C83.9323 16.6357 84.0918 15.3813 82.7713 12.9069C83.1588 12.3261 83.5462 11.7453 83.9454 11.1469C81.0962 11.9913 79.4009 13.7269 77.4009 15.8173C77.063 16.1617 76.7251 16.506 76.377 16.8608C74.9382 18.3274 73.51 19.8041 72.0809 21.2801C71.0329 22.3595 69.9794 23.4335 68.9256 24.5073C68.6094 24.838 68.2931 25.1687 67.9672 25.5094C65.6429 27.8762 63.0211 30.2864 59.5974 30.6696C57.0075 30.2602 54.9197 29.8667 52.8328 28.1602C52.0623 26.8769 52.0623 26.8769 51.6587 25.8136C52.3307 26.3762 52.3307 26.3762 53.0162 26.9502C55.2281 28.6467 56.9417 28.8351 59.6845 28.9967C63.5177 28.2961 66.2453 25.5433 68.8225 22.8298C69.5046 22.1316 70.1868 21.4334 70.869 20.7352C71.9218 19.6468 72.9724 18.5565 74.0213 17.4644C82.4168 8.75147 92.1451 1.99207 104.088 9.42356Z" fill="#E96934"/>
<path d="M109.775 6.45312C111.906 6.64673 114.037 6.84032 116.232 7.03979C116.559 8.05619 116.886 9.07259 117.223 10.1198C118.472 13.8702 119.949 17.4924 121.515 21.1198C121.801 21.7902 121.801 21.7902 122.093 22.4742C122.485 23.3926 122.88 24.3098 123.277 25.2265C123.664 25.2265 124.051 25.2265 124.451 25.2265C124.838 24.8393 125.225 24.4521 125.625 24.0531C125.333 26.6746 125.22 27.3912 123.277 29.3331C122.502 27.5907 121.727 25.8483 120.928 24.0531C120.735 24.4403 120.541 24.8275 120.341 25.2265C119.131 25.5931 119.131 25.5931 117.993 25.8131C118.12 26.4302 118.12 26.4302 118.25 27.0598C118.589 28.7908 118.884 30.5256 119.167 32.2665C117.683 30.4676 116.852 28.7376 116.033 26.5602C115.66 25.579 115.66 25.579 115.279 24.5779C115.025 23.8965 114.77 23.2152 114.508 22.5131C114.001 21.1731 113.495 19.8333 112.987 18.4935C112.745 17.8468 112.503 17.2 112.254 16.5336C111.411 14.3405 110.492 12.1844 109.54 10.0364C109.188 8.79979 109.188 8.79979 109.775 6.45312Z" fill="#E96934"/>
<path d="M150.211 7.56927C150.896 7.57116 151.581 7.57305 152.286 7.575C153.005 7.57991 153.723 7.58483 154.463 7.58989C155.185 7.59254 155.908 7.59519 156.652 7.59792C158.442 7.60485 160.231 7.61451 162.021 7.62656C162.021 9.17536 162.021 10.7242 162.021 12.3199C161.639 12.3346 161.257 12.3493 160.863 12.3644C159.133 12.4325 157.403 12.5045 155.673 12.5766C154.771 12.6112 154.771 12.6112 153.851 12.6465C153.274 12.671 152.697 12.6956 152.103 12.7209C151.571 12.7424 151.039 12.7639 150.491 12.7861C149.018 12.8601 149.018 12.8601 147.345 13.4932C146.274 12.9089 146.274 12.9089 145.18 12.0632C144.815 11.7857 144.449 11.5081 144.073 11.2222C143.796 11.0036 143.52 10.7851 143.236 10.5599C145.674 8.04143 146.703 7.55225 150.211 7.56927Z" fill="#E96934"/>
<path d="M163.195 7.04007C163.195 8.97607 163.195 10.9121 163.195 12.9067C161.394 13.8065 159.516 13.5012 157.544 13.4567C154.136 13.4111 151.195 13.5796 147.932 14.6667C147.738 15.6347 147.544 16.6027 147.345 17.6001C151.994 17.7937 156.643 17.9873 161.434 18.1867C162.021 22.2934 162.021 22.2934 161.434 24.0534C158.38 24.5627 155.464 24.7135 152.371 24.6767C151.727 24.6728 151.727 24.6728 151.07 24.6687C150.024 24.6619 148.978 24.6514 147.932 24.6401C147.738 25.8017 147.544 26.9633 147.345 28.1601C147.151 28.1601 146.957 28.1601 146.758 28.1601C146.758 26.6113 146.758 25.0625 146.758 23.4667C151.407 23.4667 156.056 23.4667 160.847 23.4667C160.847 21.9179 160.847 20.3691 160.847 18.7734C156.197 18.7734 151.548 18.7734 146.758 18.7734C146.758 14.0801 146.758 14.0801 147.741 12.9175C149.331 12.2217 150.427 12.118 152.16 12.1482C153.023 12.1567 153.023 12.1567 153.903 12.1654C154.797 12.1875 154.797 12.1875 155.71 12.2101C156.618 12.222 156.618 12.222 157.544 12.2341C159.037 12.2548 160.529 12.2838 162.021 12.3201C162.021 10.7713 162.021 9.22247 162.021 7.62674C159.55 7.65726 157.08 7.71306 154.609 7.7734C153.911 7.78172 153.212 7.79004 152.493 7.79861C148.664 7.9055 146.155 7.99123 143.236 10.5601C142.654 10.8505 142.654 10.8505 142.062 11.1467C142.62 9.67656 143.18 8.84827 144.373 7.81007C149.66 5.54551 157.711 5.67008 163.195 7.04007Z" fill="#E96934"/>
<path d="M34.0478 6.45357C35.6621 7.1869 35.6621 7.1869 36.9829 8.80023C37.5806 11.1275 37.9053 13.4529 38.157 15.8402C36.9852 14.7792 36.9852 14.7792 35.8088 13.4936C35.7849 12.3205 35.7839 11.1466 35.8088 9.97357C35.2974 8.77746 35.2974 8.77746 34.0478 8.21357C32.4517 8.072 30.9604 8.13449 29.3515 8.21357C27.7517 10.9543 27.0788 13.668 26.3544 16.7454C25.4035 20.4182 24.1336 23.9897 22.8942 27.5736C21.644 26.3242 21.4405 25.7897 21.023 24.1269C20.9178 23.7291 20.8126 23.3313 20.7043 22.9215C20.5286 21.573 20.7258 20.6477 21.1331 19.3602C21.7142 20.5218 22.2954 21.6834 22.8942 22.8802C23.0845 22.2276 23.0845 22.2276 23.2787 21.5618C23.8607 19.59 24.4595 17.6236 25.0588 15.6569C25.2582 14.9721 25.4576 14.2873 25.6631 13.5818C25.9667 12.5977 25.9667 12.5977 26.2765 11.5938C26.4579 10.9885 26.6392 10.3833 26.8261 9.75973C28.3188 6.74017 30.8355 5.9854 34.0478 6.45357Z" fill="#E96934"/>
<path d="M82.7713 24.0532C84.6702 25.0021 85.5337 25.506 86.8805 26.9866C85.7065 28.7466 85.7065 28.7466 84.5324 29.9199C83.9513 30.7911 83.9513 30.7911 83.3584 31.6799C81.3404 30.9099 81.3404 30.9099 79.2491 29.9199C79.0554 29.3391 78.8617 28.7583 78.6621 28.1599C80.0182 26.8047 81.3742 25.4495 82.7713 24.0532Z" fill="#E96934"/>
<path d="M147.345 17.6001C151.994 17.7937 156.643 17.9873 161.433 18.1868C162.02 22.2934 162.02 22.2934 161.433 24.0534C158.38 24.5627 155.463 24.7135 152.371 24.6768C151.942 24.6741 151.512 24.6715 151.07 24.6687C150.024 24.6619 148.978 24.6514 147.932 24.6401C147.738 25.8017 147.544 26.9633 147.345 28.1601C147.151 28.1601 146.957 28.1601 146.758 28.1601C146.758 26.6113 146.758 25.0625 146.758 23.4668C151.407 23.4668 156.056 23.4668 160.846 23.4668C160.846 21.918 160.846 20.3692 160.846 18.7734C156.584 18.7734 152.323 18.7734 147.932 18.7734C147.738 18.3862 147.544 17.999 147.345 17.6001Z" fill="#E96934"/>
<path d="M31.6997 14.6665C33.1707 16.1366 33.2915 17.1499 33.7589 19.1673C33.9916 20.1701 33.9916 20.1701 34.229 21.1932C34.3871 21.895 34.5453 22.5968 34.7082 23.3198C34.8709 24.0126 35.0336 24.7053 35.2012 25.419C35.9191 28.5572 36.4921 31.3796 36.3959 34.6132C35.5073 32.9739 34.9727 31.484 34.5936 29.6609C34.4914 29.1735 34.3892 28.6861 34.284 28.1839C34.1818 27.6799 34.0797 27.1758 33.9744 26.6565C33.8677 26.1502 33.761 25.6439 33.6511 25.1222C32.8737 21.3634 32.8737 21.3634 32.8737 19.3598C32.2926 19.3598 31.7114 19.3598 31.1126 19.3598C31.0415 19.7425 30.9704 20.1252 30.8971 20.5194C30.3557 23.3412 29.7615 26.0421 28.7645 28.7465C28.5708 28.7465 28.3771 28.7465 28.1775 28.7465C28.5484 25.7692 29.1441 22.9478 29.9386 20.0565C30.043 19.6651 30.1474 19.2738 30.255 18.8706C31.031 16.0031 31.031 16.0031 31.6997 14.6665Z" fill="#E96934"/>
<path d="M83.9454 11.1465C83.8122 11.4853 83.679 11.8241 83.5418 12.1732C83.2028 13.5646 83.2028 13.5646 84.2022 14.8132C84.5049 15.152 84.8076 15.4908 85.1194 15.8398C83.9571 16.6142 82.7948 17.3886 81.5973 18.1865C81.2098 17.7993 80.8224 17.4121 80.4232 17.0132C79.842 17.2068 79.2609 17.4004 78.6621 17.5998C78.2747 17.4062 77.8872 17.2126 77.488 17.0132C77.8293 15.1228 78.3715 14.117 79.7261 12.7598C80.0205 12.4543 80.3148 12.1488 80.6181 11.834C81.5973 11.1465 81.5973 11.1465 83.9454 11.1465Z" fill="#E96934"/>
<path d="M102.143 18.1865C103.75 19.7924 103.794 21.1081 104.003 23.3176C103.905 24.6399 103.905 24.6399 102.584 26.3265C102.051 26.7379 101.518 27.1493 100.969 27.5732C100.691 27.8999 100.412 28.2266 100.126 28.5632C97.667 30.627 94.6522 30.7342 91.5769 30.5065C90.146 29.9199 90.146 29.9199 89.2288 29.3332C89.4225 28.946 89.6162 28.5588 89.8158 28.1599C90.397 28.3535 90.9781 28.5471 91.5769 28.7465C94.0857 28.9907 96.2168 29.0261 98.5479 28.0132C100.375 26.5091 101.423 25.3709 101.857 22.999C101.891 22.4273 101.925 21.8556 101.96 21.2665C102.018 20.3999 102.018 20.3999 102.077 19.5157C102.099 19.0771 102.121 18.6384 102.143 18.1865Z" fill="#E96934"/>
<path d="M12.9148 14.6665C14.6795 16.4301 14.4386 18.0831 14.6759 20.5332C14.4821 19.9524 14.2884 19.3716 14.0888 18.7732C13.7014 18.7732 13.3139 18.7732 12.9148 18.7732C12.8013 19.4387 12.6877 20.1042 12.5708 20.7898C12.4165 21.6821 12.2621 22.5743 12.1076 23.4665C12.0334 23.9029 11.9593 24.3392 11.8829 24.7888C11.374 27.7128 10.7306 30.5682 9.97961 33.4398C9.78589 33.4398 9.59217 33.4398 9.39258 33.4398C9.79453 29.3894 10.4187 25.4158 11.1537 21.4132C11.2581 20.8263 11.3625 20.2395 11.4701 19.6348C11.5715 19.0782 11.6729 18.5216 11.7774 17.9482C11.869 17.4441 11.9605 16.9401 12.0549 16.4208C12.3277 15.2532 12.3277 15.2532 12.9148 14.6665Z" fill="#E96934"/>
<path d="M97.4472 12.9067C99.0666 13.2026 100.564 13.6035 102.143 14.0801C102.143 15.4353 102.143 16.7905 102.143 18.1867C101.86 17.9395 101.577 17.6922 101.286 17.4374C100.73 16.9553 100.73 16.9553 100.162 16.4634C99.7944 16.1435 99.4267 15.8236 99.0478 15.494C97.4037 14.1521 96.3739 13.9998 94.2919 14.0067C93.6131 14.0045 93.6131 14.0045 92.9206 14.0022C91.6163 14.0778 90.4814 14.3066 89.2288 14.6667C91.3672 11.9759 94.2907 12.6453 97.4472 12.9067Z" fill="#E96934"/>
<path d="M3.52222 29.3335C3.71594 29.3335 3.90966 29.3335 4.10925 29.3335C4.10925 31.0759 4.10925 32.8183 4.10925 34.6135C5.65901 34.8071 7.20877 35.0007 8.8055 35.2002C8.61178 35.5874 8.41806 35.9746 8.21847 36.3735C6.47499 36.3735 4.7315 36.3735 2.93519 36.3735C2.13164 33.7234 2.65884 31.922 3.52222 29.3335Z" fill="#E96934"/>
<path d="M120.928 21.1201C121.836 22.4803 122.57 23.7639 123.276 25.2268C123.664 25.2268 124.051 25.2268 124.45 25.2268C124.838 24.8396 125.225 24.4524 125.624 24.0535C125.353 26.492 125.108 27.6994 123.276 29.3335C122.88 28.4067 122.49 27.4773 122.102 26.5468C121.884 26.0295 121.666 25.5122 121.442 24.9793C120.928 23.4668 120.928 23.4668 120.928 21.1201Z" fill="#E96934"/>
<path d="M85.1194 15.2534C86.3668 15.4734 86.3668 15.4734 87.4675 15.8401C86.7394 18.0229 85.7314 18.5535 83.9453 19.9468C83.3641 20.818 83.3641 20.818 82.7712 21.7068C82.3838 21.5132 81.9963 21.3196 81.5972 21.1201C81.5972 20.5393 81.5972 19.9585 81.5972 19.3601C82.1783 19.3601 82.7595 19.3601 83.3583 19.3601C83.4309 18.9003 83.5036 18.4405 83.5784 17.9668C83.9453 16.4268 83.9453 16.4268 85.1194 15.2534Z" fill="#E96934"/>
<path d="M71.0308 12.3198C72.4837 12.6102 72.4837 12.6102 73.9659 12.9065C74.1596 13.6809 74.3534 14.4553 74.5529 15.2532C72.3516 15.9132 72.3516 15.9132 71.0308 15.2532C71.0308 14.2852 71.0308 13.3172 71.0308 12.3198Z" fill="#E96934"/>
<path d="M80.4232 21.7065C80.8106 21.9001 81.198 22.0937 81.5972 22.2932C81.0161 23.1644 81.0161 23.1644 80.4232 24.0532C80.0357 24.0532 79.6483 24.0532 79.2491 24.0532C79.2491 24.4404 79.2491 24.8276 79.2491 25.2265C78.3502 26.1111 78.3502 26.1111 77.1945 27.0599C76.8131 27.376 76.4317 27.6921 76.0388 28.0178C75.7421 28.2583 75.4455 28.4988 75.1399 28.7465C75.1399 26.9865 75.1399 26.9865 76.2956 25.6597C77.0311 24.9552 77.0311 24.9552 77.7815 24.2365C78.2719 23.7624 78.7622 23.2882 79.2675 22.7997C79.6488 22.4389 80.0302 22.0782 80.4232 21.7065Z" fill="#E96934"/>
<path d="M56.3549 7.62656C54.9759 9.00472 54.0322 9.22898 52.1723 9.75323C51.6381 9.90599 51.1038 10.0588 50.5534 10.2161C50.1433 10.3296 49.7331 10.443 49.3105 10.5599C53.0641 6.6059 53.0641 6.6059 56.3549 7.62656Z" fill="#E96934"/>
<path d="M102.143 18.1865C103.551 19.5931 103.519 20.1417 103.684 22.0732C103.728 22.5527 103.772 23.0321 103.817 23.5261C103.846 23.8936 103.875 24.2612 103.904 24.6399C103.323 24.8335 102.742 25.0271 102.143 25.2265C102.143 22.9033 102.143 20.5801 102.143 18.1865Z" fill="#E96934"/>
<path d="M51.0718 13.4932C52.8152 13.7836 52.8152 13.7836 54.594 14.0798C53.188 15.7808 52.0624 16.1342 49.8977 16.4265C49.8977 15.8457 49.8977 15.2649 49.8977 14.6665C50.2851 14.6665 50.6726 14.6665 51.0718 14.6665C51.0718 14.2793 51.0718 13.8921 51.0718 13.4932Z" fill="#E96934"/>
</svg>
